<svg class="w-full sm:h-64 mx-auto" data-name="Layer 1" xmlns="http://www.w3.org/2000/svg" width="892.6139" height="540.80203"><circle cx="73.89615" cy="71.32961" r="46" fill="#ff6584"/><ellipse cx="444.00318" cy="522.80203" rx="444.00318" ry="18" fill="#e6e6e6"/><circle cx="113" cy="184.2194" r="113" fill="#6c63ff"/><path fill="#3f3d56" d="M123.892 524.581h-23.145l10.551-357.38 12.594 357.38z"/><path fill="#3f3d56" d="M113.34 234.933l24.847-34.376L113 243.442l-2.723-4.765 3.063-3.744zM110.617 269.65l-24.846-34.376 25.187 42.885 2.723-4.765-3.064-3.744zM827.505 524.957h-23.144l10.551-357.38 12.593 357.38z"/><path fill="#3f3d56" d="M816.954 235.309l24.847-34.376-25.187 42.885-2.723-4.765 3.063-3.744zM814.231 270.026l-24.846-34.376 25.187 42.885 2.723-4.765-3.064-3.744z"/><circle cx="459.05561" cy="314.39327" r="210.50358" fill="#3f3d56"/><circle cx="459.05561" cy="314.39327" r="193.07779" fill="#fff"/><circle cx="458.35857" cy="315.0903" r="25.79017" fill="#3f3d56"/><path fill="#3f3d56" d="M452.78232 131.07392h11.15251v20.91095h-11.15251zM452.78232 478.19572h11.15251v20.91095h-11.15251zM295.25315 309.51405v11.15251H274.3422v-11.15251zM642.37495 309.51404v11.15251H621.464v-11.15251zM450.924 326.286l9.531-21.793 119.425 66.142-128.956-44.349zM431.87137 53.00636h54.36848v62.73286h-54.36848z"/><ellipse cx="459.05561" cy="53.00636" rx="62.73286" ry="17.42579" fill="#3f3d56"/><path d="M576.50545 351.68446l-3.48516 4.87922s-16.03173 18.81986-16.72876 9.75845 11.84954-15.3347 11.84954-15.3347l6.97032-4.18219zM675.72473 368.14623l2.91833 5.238s10.14843 22.54357 1.66044 19.29564-8.78836-17.27221-8.78836-17.27221l-.79685-8.08957z" fill="#ffb8b8"/><circle cx="660.03348" cy="254.04245" r="21.22425" fill="#2f2e41"/><path d="M658.05817 428.35795l2.78812 18.12283v5.57623h16.03173v-6.9703s.697-12.54657-2.09109-16.03173-16.72876-.69703-16.72876-.69703zM629.47986 428.35795l2.78813 18.12283v5.57623h16.03173v-6.9703s.697-12.54657-2.09109-16.03173-16.72877-.69703-16.72877-.69703z" fill="#ffb8b8"/><path d="M640.26824 282.78472s-6.16626 3.25-1.9546 10.64285 28.92249 83.8766 28.92249 83.8766l14.25582-4.04685-12.57235-48.37053-7.1988-30.40158z" fill="#6c63ff"/><circle cx="657.70965" cy="260.02479" r="16.03173" fill="#ffb8b8"/><path d="M665.02848 262.4644l-2.09109 32.76049-14.63767-10.45548s4.87922-19.51689 3.48516-20.911z" fill="#ffb8b8"/><path d="M665.02848 292.43676l-15.769-11.67706s-7.23305-2.9606-9.32415.52455-12.54657 55.06551-6.97032 64.824c0 0 29.97237 6.27328 36.24565 2.78812l2.78813-18.12282s3.48516-11.15251-2.0911-18.12283z" fill="#6c63ff"/><path d="M644.11753 281.98129s-5.57625-4.18219-10.45548 2.78812-63.42988 62.03583-63.42988 62.03583l9.75844 11.15251 38.33675-32.06346 24.39611-19.51689z" fill="#6c63ff"/><path d="M669.55919 348.54782s-34.50307-6.6218-37.98823-1.74258l-.697 7.66735s-7.66735 14.63766-3.48516 38.33674 1.39406 38.33675 1.39406 38.33675 18.81986-2.0911 32.76049 0 16.03173 0 16.03173 0zM678.27209 449.2689l-20.21392.697 6.97031 52.27739s-5.57625 22.305.697 23.69907a70.7125 70.7125 0 0013.24361 1.39407s6.27328 6.27328 13.2436 5.57625a39.034 39.034 0 0013.2436-4.18219s1.39407-4.18219-3.48516-5.57625-18.12282-5.57626-20.911-20.21392z" fill="#2f2e41"/><path d="M649.69378 449.2689l-20.21392.697 6.97032 52.27739s-5.57625 22.305.697 23.69907a70.7125 70.7125 0 0013.24361 1.39407s6.27328 6.27328 13.2436 5.57625a39.034 39.034 0 0013.2436-4.18219s1.39407-4.18219-3.48516-5.57625-18.12279-5.57623-20.91088-20.21389z" fill="#2f2e41"/><circle cx="667.45803" cy="231.7041" r="8.78245" fill="#2f2e41"/><path d="M679.16795 226.94694a8.78336 8.78336 0 00-7.86761-8.735 8.881 8.881 0 01.91484-.04748 8.782445 8.782445 0 010 17.56489 8.881 8.881 0 01-.91484-.04748 8.78336 8.78336 0 007.86761-8.73493z" fill="#2f2e41"/><ellipse cx="657.56451" cy="249.54235" rx="14.63741" ry="8.78245" fill="#2f2e41"/><path d="M888.11972 42.15122a44.67678 44.67678 0 00-87.65662-9.41942c-.54125-.01942-1.082-.04117-1.628-.04117a44.68754 44.68754 0 00-42.86662 32.08892 31.5744 31.5744 0 00-37.46546 9.31921h139.36225a30.21954 30.21954 0 0030.28607-31.28863q-.01339-.32895-.03162-.65891z" fill="#e6e6e6"/><circle cx="771.6139" cy="124.178" r="12" fill="#e6e6e6"/><circle cx="807.84695" cy="95.88566" r="9.9918" fill="#e6e6e6"/><circle cx="856.6139" cy="150.178" r="12" fill="#e6e6e6"/><circle cx="765.6139" cy="205.178" r="12" fill="#e6e6e6"/><circle cx="856.6139" cy="274.178" r="12" fill="#e6e6e6"/><path d="M837.59431 505.5663c.00415-.13007.01959-.2572.01959-.38831a11.98223 11.98223 0 00-16.98706-10.90472 11.96811 11.96811 0 00-20.8316 9.91388c-.061-.00092-.12012-.00916-.18134-.00916a12 12 0 107.33429 21.48322 11.99355 11.99355 0 0020.62177 1.21716 11.99014 11.99014 0 1010.02435-21.31207z" fill="#e6e6e6"/><circle cx="867.6139" cy="226.178" r="5" fill="#e6e6e6"/><circle cx="835.6139" cy="106.178" r="5" fill="#e6e6e6"/><circle cx="818.6139" cy="230.178" r="5" fill="#e6e6e6"/><circle cx="822.6139" cy="225.178" r="5" fill="#e6e6e6"/><circle cx="825.6139" cy="220.178" r="5" fill="#e6e6e6"/><circle cx="813.6139" cy="262.178" r="5" fill="#e6e6e6"/><circle cx="887.6139" cy="318.178" r="5" fill="#e6e6e6"/><circle cx="780.6139" cy="321.178" r="5" fill="#e6e6e6"/><circle cx="786.6139" cy="167.178" r="5" fill="#e6e6e6"/><circle cx="809.6139" cy="257.178" r="5" fill="#e6e6e6"/><circle cx="804.6139" cy="249.178" r="5" fill="#e6e6e6"/></svg>