<svg class="w-5/6 sm:h-64 mx-auto" data-name="Layer 1" xmlns="http://www.w3.org/2000/svg" width="880.44024" height="572.99471"><path d="M821.08748 308.3416l-2.32781 31.81339a7.08623 7.08623 0 01-6.596 6.55343 7.08624 7.08624 0 01-7.55561-7.23923l.74113-31.12759 27.38508-87.834-3.31475-53.81064 25.92189-.92579-1.85156 62.02739z" fill="#a0616a"/><path d="M860.69789 176.70128c-11.56052-2.66659-21.45679.44149-29.13357 11.25093l-5.94381-44.96278a11.80857 11.80857 0 018.8674-12.66615 11.80858 11.80858 0 0114.14588 7.918z" fill="#6c63ff"/><path d="M862.06224 123.92689c-26.71326-11.36205-54.156-4.16317-86.64948.83314-.30237-6.05058-3.96748-13.41437-.12824-17.63559 4.66434-5.12838 4.235-10.51682 1.42819-15.93633-7.17737-13.85855 3.1058-28.60476 13.48865-40.86608a22.99491 22.99491 0 0119.19245-8.05553l19.23339 1.37382c9.58418.68458 11.9075 7.24667 14.624 16.46327 4.59254 6.246 7.05057 12.47466 5.503 18.67092 6.8789 4.70093 8.03463 10.37545 4.94352 16.77246-2.62113 4.02778-2.59322 7.94847.11925 11.76065a54.29814 54.29814 0 018.07332 16.03577z" fill="#2f2e41"/><path fill="#a0616a" d="M766.709 538.607h-12.778l-7.589-105.539 32.402-.926-12.035 106.465z"/><path d="M767.63483 572.8612c-3.40716 1.555-6.26111-11.04355-9.13511-8.21923-8.039 7.9-27.32392 6.12918-27.32392 6.12918a5.02522 5.02522 0 01-3.16744-6.5486 5.02523 5.02523 0 013.48646-3.11071l8.54944-2.13736 13.42386-23.60744 13.70383-.92579a32.74 32.74 0 016.05529 27.92984c-1.24355 5.07571-3.16336 9.38151-5.59241 10.49011z" fill="#2f2e41"/><path fill="#a0616a" d="M851.79 538.607h-12.779l-7.589-105.539 33.328-6.48-12.96 112.019z"/><path d="M852.71532 572.8612c-3.40716 1.555-6.26111-11.04355-9.13511-8.21923-8.039 7.9-27.32392 6.12918-27.32392 6.12918a5.02522 5.02522 0 01-3.16744-6.5486 5.02523 5.02523 0 013.48646-3.11071l8.54944-2.13736 13.42384-23.60743 14.62962-1.85157.3695.60429a37.72074 37.72074 0 014.04225 30.84406c-1.21663 3.89827-2.87268 6.98369-4.87464 7.89737zM880.44024 437.83483c-20.65185 9.13751-33.02167-.75212-54.04423 2.23721-6.0029.85359-13.07277-87.41626-19.10493-87.04783-7.67834.469-14.328 89.42684-22.05292 89.12291a255.4193 255.4193 0 01-57.412-9.079c20.01927-77.64425 43.65731-147.8517 43.51175-205.52358l60.05615-4.62891 8.2674 13.10686c13.25431 31.09711 26.794 65.63208 33.54054 101.7744z" fill="#2f2e41"/><circle cx="800.96298" cy="80.34522" r="27.77346" fill="#a0616a"/><path fill="#a0616a" d="M831.514 129.412l-34.254 1.851-5.555-30.551 27.774-4.628 12.035 33.328z"/><path d="M834.17146 227.54455l-43.88741 1.05708-18.94609 2.646c-9.3-30.72015-17.12931-61.36989 1.85157-87.0235l22.21876-22.21876 33.32815-.92579.44148.25228a26.83849 26.83849 0 0112.29635 31.22376c-8.27068 26.87635-7.22235 52.25605-7.30281 74.98893z" fill="#6c63ff"/><path d="M832.49138 80.2051a33.769 33.769 0 00-8.5391-22.49055v-9.86514h-30.11667a17.487 17.487 0 00-17.4871 17.487v.00006h20.0743c-5.41348 9.96469-7.74785 20.41223-2.535 30.47731 3.14459 6.07209 3.28429 18.13491-1.02368 23.927a59.67311 59.67311 0 006.80053 0c9.30378 0 34.677 1.21023 40.80323-4.85753 6.20377-6.14456-7.97651-25.25661-7.97651-34.67815z" fill="#2f2e41"/><path d="M785.79156 311.25495H607.88012a4.253 4.253 0 00-4.24053 4.24053v186.74241a4.253 4.253 0 004.24053 4.24053h177.91144a4.253 4.253 0 004.24053-4.24053V315.49548a4.253 4.253 0 00-4.24053-4.24053z" fill="#e6e6e6"/><path d="M781.55103 316.55561H612.12067a3.19214 3.19214 0 00-3.1804 3.1804v178.26135a3.18976 3.18976 0 003.1804 3.1804h169.43036a3.18976 3.18976 0 003.1804-3.1804V319.73601a3.18976 3.18976 0 00-3.1804-3.1804z" fill="#fff"/><path d="M770.41218 313.64226l-2.32781 31.81339a7.08626 7.08626 0 01-6.596 6.55344 7.08626 7.08626 0 01-7.55562-7.23923l.74114-31.1276 23.14455-87.94928.92578-53.69535 25.92189-.92578-1.85156 62.02739z" fill="#a0616a"/><path d="M807.44346 175.70076c-10.99019-4.469-21.25451-2.97235-30.55081 6.48047l1.27359-45.336a11.80858 11.80858 0 0110.76673-11.09687 11.80858 11.80858 0 0112.70858 10.06446z" fill="#6c63ff"/><path d="M768.97839 361.6472a1.82639 1.82639 0 011.82639 1.82639v3.65277a1.82639 1.82639 0 01-1.82639 1.82639H624.69331a1.82637 1.82637 0 01-1.82639-1.82639v-3.65279a1.82637 1.82637 0 011.82639-1.82639h144.28508M768.97839 378.99793a1.8264 1.8264 0 011.82639 1.8264v3.65278a1.8264 1.8264 0 01-1.82639 1.8264H624.69331a1.82638 1.82638 0 01-1.82639-1.8264v-3.65275a1.82638 1.82638 0 011.82639-1.8264h144.28508" fill="#e6e6e6"/><path d="M768.97839 396.34867a1.82641 1.82641 0 011.82639 1.82639v3.65279a1.82641 1.82641 0 01-1.82639 1.82639H624.69331a1.82639 1.82639 0 01-1.82639-1.82639v-3.65279a1.82639 1.82639 0 011.82639-1.82639h144.28508" fill="#6c63ff"/><path d="M768.97839 414.07913a1.82639 1.82639 0 011.82639 1.82639v3.65284a1.82639 1.82639 0 01-1.82639 1.82639H624.69331a1.82637 1.82637 0 01-1.82639-1.82639v-3.65279a1.82637 1.82637 0 011.82639-1.82639h144.28508M768.97839 431.42986a1.8264 1.8264 0 011.82639 1.8264v3.65278a1.8264 1.8264 0 01-1.82639 1.8264H624.69331a1.82638 1.82638 0 01-1.82639-1.8264v-3.65278a1.82638 1.82638 0 011.82639-1.8264h144.28508M768.97839 448.7806a1.82641 1.82641 0 011.82639 1.82639v3.65279a1.82641 1.82641 0 01-1.82639 1.82639H624.69331a1.82639 1.82639 0 01-1.82639-1.82639v-3.65279a1.82639 1.82639 0 011.82639-1.82639h144.28508" fill="#e6e6e6"/><path d="M132.22628 533.64688l-14.1671.78706-32.26951-217.2289-30.30185 216.83537-15.3477-3.54178c-8.52278-93.471-19.61946-190.08537-11.80592-232.18306h107.82739c16.01235 41.84722 5.32381 140.0993-3.93531 235.33131z" fill="#2f2e41"/><path d="M44.08512 572.97795a12.684 12.684 0 01-11.6668-15.69909l6.44678-26.19c5.38915-6.69584 10.21327-6.40252 14.544 0l4.42643-1.8974 3.16173 22.76485-4.36058 12.73921a12.684 12.684 0 01-12.55156 8.28243zM129.85543 572.97795a12.684 12.684 0 0011.66675-15.69908l-6.44677-26.19c-5.38915-6.69584-10.21327-6.40252-14.544 0l-4.42643-1.8974-3.16174 22.76485 4.36058 12.73921a12.684 12.684 0 0012.55161 8.28242z" fill="#2f2e41"/><circle cx="88.93792" cy="44.88185" r="31.48245" fill="#ffb8b8"/><path fill="#ffb8b8" d="M107.827 103.124h-40.14l2.361-41.714h37.779v41.714z"/><path d="M150.32869 303.03794H22.82477c18.59029-62.68378 15.32214-129.83431 1.57413-199.12649l34.63069-11.01886 9.44474-7.87061c11.852 14.43479 24.95729 14.31554 39.35306-.78706l11.80592 8.65767 34.63069 11.80592c-18.26593 66.75904-21.23682 132.9354-3.93531 198.33943z" fill="#6c63ff"/><path d="M55.3135 36.74721a28.49042 28.49042 0 011.932-23.14887C61.09268 6.77566 68.5015.3801 82.74468.01934c31.07612-.78707 44.54244 22.64392 42.79158 29.51479s-8.015 23.21831-8.015 23.21831 3.88452-15.74123-3.88451-17.31535-37.874-7.87061-46.61419-.78706a17.7641 17.7641 0 00-6.7979 16.52829z" fill="#2f2e41"/><path d="M182.57603 312.31508H4.66461a4.27139 4.27139 0 00-4.24053 4.24053v186.74241a4.253 4.253 0 004.24053 4.24053h177.91142a4.253 4.253 0 004.24053-4.24053V316.55561a4.253 4.253 0 00-4.24053-4.24053z" fill="#e6e6e6"/><path d="M178.3355 317.61575H8.90512a3.18975 3.18975 0 00-3.1804 3.18039v178.26135a3.18976 3.18976 0 003.1804 3.1804H178.3355a3.18976 3.18976 0 003.1804-3.1804V320.79614a3.18975 3.18975 0 00-3.1804-3.18039z" fill="#fff"/><path d="M146.20022 327.53662a12.89271 12.89271 0 01-7.1904-17.06426l10.53181-24.74975-1.57412-78.70612-5.50939-26.76013 28.3342-11.01886 5.50943 36.99188-10.23183 85.00264-2.359 25.47722a12.89271 12.89271 0 01-17.5107 10.82738zM30.10149 327.53662a12.89271 12.89271 0 007.19037-17.06427l-10.53174-24.74976 1.57412-78.70612 5.50943-26.76008-28.3342-11.01886-5.50943 36.99188 10.23179 85.00261 2.359 25.47722a12.8927 12.8927 0 0017.51066 10.82738z" fill="#ffb8b8"/><path d="M173.15347 171.59871a100.46691 100.46691 0 00-31.48245 14.1671l-7.08355-21.25065 18.10241-60.60371a25.85716 25.85716 0 0117.62874 22.897 246.55367 246.55367 0 002.83485 44.79026zM3.14824 171.59871a100.4668 100.4668 0 0131.48245 14.1671l7.08355-21.25065-15.74122-61.3908c-9.99071 3.33024-19.32468 13.1739-19.98991 23.684a246.55459 246.55459 0 01-2.83487 44.79035z" fill="#6c63ff"/><path d="M165.76286 361.7225a1.82639 1.82639 0 011.82639 1.82639v3.65279a1.82639 1.82639 0 01-1.82639 1.82639H21.47778a1.82637 1.82637 0 01-1.82639-1.82639v-3.65279a1.82637 1.82637 0 011.82639-1.82639h144.28508M165.76286 379.07323a1.8264 1.8264 0 011.82639 1.8264v3.65278a1.8264 1.8264 0 01-1.82639 1.8264H21.47778a1.82638 1.82638 0 01-1.82639-1.8264v-3.65278a1.82638 1.82638 0 011.82639-1.8264h144.28508" fill="#e6e6e6"/><path d="M165.76286 396.42397a1.82641 1.82641 0 011.82639 1.8264v3.65278a1.82641 1.82641 0 01-1.82639 1.8264H21.47778a1.8264 1.8264 0 01-1.82639-1.8264v-3.65279a1.8264 1.8264 0 011.82639-1.8264h144.28508" fill="#6c63ff"/><path d="M165.76286 414.15443a1.82639 1.82639 0 011.82639 1.82639v3.65279a1.82639 1.82639 0 01-1.82639 1.82639H21.47778a1.82637 1.82637 0 01-1.82639-1.82639v-3.65279a1.82637 1.82637 0 011.82639-1.82639h144.28508M165.76286 431.50517a1.82639 1.82639 0 011.82639 1.82639v3.6528a1.82639 1.82639 0 01-1.82639 1.82639H21.47778a1.82637 1.82637 0 01-1.82639-1.82639v-3.6528a1.82637 1.82637 0 011.82639-1.82639h144.28508M165.76286 448.8559a1.82641 1.82641 0 011.82639 1.8264v3.65278a1.82641 1.82641 0 01-1.82639 1.8264H21.47778a1.8264 1.8264 0 01-1.82639-1.8264v-3.65278a1.8264 1.8264 0 011.82639-1.8264h144.28508M525.82584 186.58336H347.91435a4.24614 4.24614 0 00-4.24053 4.24053v311.43516a4.253 4.253 0 004.24053 4.24053h177.91149a4.253 4.253 0 004.24053-4.24053V190.8239a4.24614 4.24614 0 00-4.24053-4.24054z" fill="#e6e6e6"/><path d="M524.69149 194.38593a3.4181 3.4181 0 00-.44524-1.07075 3.20914 3.20914 0 00-2.66094-1.43115H352.15489a3.18292 3.18292 0 00-3.1804 3.1804v302.95409a3.18976 3.18976 0 003.1804 3.1804h169.43042a3.18972 3.18972 0 003.1804-3.1804V195.06443a2.89481 2.89481 0 00-.07422-.6785z" fill="#fff"/><path d="M509.01264 356.42183a1.8264 1.8264 0 011.82639 1.8264v3.65278a1.8264 1.8264 0 01-1.82639 1.8264H364.72756a1.82638 1.82638 0 01-1.8264-1.8264v-3.65278a1.82638 1.82638 0 011.8264-1.8264h144.28508M509.01264 373.77257a1.82639 1.82639 0 011.82639 1.82639v3.65279a1.82639 1.82639 0 01-1.82639 1.82639H364.72756a1.82638 1.82638 0 01-1.8264-1.82639v-3.65279a1.82638 1.82638 0 011.8264-1.82639h144.28508" fill="#e6e6e6"/><path d="M509.01264 391.12336a1.82641 1.82641 0 011.82639 1.82639v3.65279a1.82641 1.82641 0 01-1.82639 1.82639H364.72756a1.8264 1.8264 0 01-1.8264-1.82639v-3.65279a1.8264 1.8264 0 011.8264-1.82639h144.28508" fill="#6c63ff"/><path d="M509.01264 408.85377a1.82639 1.82639 0 011.82639 1.82639v3.65279a1.82639 1.82639 0 01-1.82639 1.82639H364.72756a1.82638 1.82638 0 01-1.8264-1.82639v-3.65279a1.82638 1.82638 0 011.8264-1.82639h144.28508M509.01264 426.2045a1.8264 1.8264 0 011.82639 1.8264v3.65278a1.8264 1.8264 0 01-1.82639 1.8264H364.72756a1.82639 1.82639 0 01-1.8264-1.8264v-3.65278a1.82638 1.82638 0 011.8264-1.8264h144.28508M509.01264 443.55524a1.82641 1.82641 0 011.82639 1.82639v3.65279a1.82641 1.82641 0 01-1.82639 1.82639H364.72756a1.8264 1.8264 0 01-1.8264-1.82639v-3.65279a1.8264 1.8264 0 011.8264-1.82639h144.28508" fill="#e6e6e6"/><path d="M365.77184 220.98681a2.12237 2.12237 0 00-2.12027 2.12027v98.50279a2.1227 2.1227 0 002.12027 2.12027h142.19651a2.1227 2.1227 0 002.12027-2.12027v-98.50279a2.12237 2.12237 0 00-2.12027-2.12027z" fill="#6c63ff"/><path d="M586.60437 144.48791c3.86368 1.642 7.70563 3.46251 11.41713 5.41144l.98559-1.877c-3.76223-1.97584-7.657-3.82124-11.57242-5.486zM630.50774 169.86691l-1.4142 1.58088c3.12759 2.7963 6.17444 5.75774 9.05771 8.801l1.53844-1.45768c-2.92257-3.08575-6.01191-6.08856-9.18195-8.9242zM608.9593 156.22494c3.54274 2.24761 7.0358 4.66914 10.37977 7.19783l1.27961-1.69166c-3.39056-2.56285-6.93227-5.018-10.52471-7.29669zM562.65406 136.53588c4.08007.99594 8.16323 2.17047 12.13666 3.49l.66879-2.0126c-4.02829-1.33707-8.16737-2.52765-12.3023-3.53757zM678.99224 257.88277l-2.09334.336c.66258 4.13079 1.15434 8.34855 1.46078 12.53628l2.11406-.1553c-.31062-4.24782-.80856-8.52614-1.4815-12.71698zM670.75447 233.76113c1.37072 3.95945 2.583 8.02916 3.60383 12.09576l2.05608-.51661c-1.03528-4.12561-2.26624-8.25485-3.65559-12.27279zM660.48651 210.72964c2.03123 3.67216 3.9258 7.47269 5.63195 11.295l1.936-.86343c-1.73-3.87766-3.65249-7.73255-5.71271-11.45751zM646.44493 189.77236c2.6203 3.27512 5.13191 6.7014 7.46544 10.18255l1.76206-1.18022c-2.36666-3.53085-4.9145-7.00527-7.57105-10.32646zM543.59412 121.73084c-4.81007 3.82234-12.44679 7.28977-18.56339 9.245 5.913 2.5063 13.20222 6.65476 17.64418 10.8993l-2.845-9.14973c3.49823.3245 7.002.7599 10.44519 1.31177l.33543-2.09334c-3.52411-.56527-7.11151-1.0096-10.6923-1.33947zM206.02551 221.1617l1.936.86343c1.7046-3.82073 3.59917-7.62126 5.63143-11.295l-1.85523-1.026c-2.06178 3.72657-3.98327 7.58146-5.7122 11.45757zM197.66506 245.33976l2.05608.51661c1.01976-4.06091 2.23208-8.13062 3.60383-12.09628l-2.00431-.6926c-1.39091 4.02312-2.62135 8.15235-3.6556 12.27227zM193.60519 270.5997l2.11509.1553c.30541-4.18773.79665-8.40549 1.46027-12.53628l-2.09335-.33647c-.67294 4.19084-1.17143 8.46968-1.48201 12.71745zM218.40753 198.77416l1.761 1.18022c2.332-3.47856 4.84359-6.90432 7.466-10.18255l-1.65542-1.32413c-2.65966 3.32378-5.20699 6.7982-7.57158 10.32646zM275.07132 148.02236l.98559 1.877c3.71616-1.95048 7.55759-3.771 11.41713-5.41144l-.82926-1.95152c-3.91235 1.66318-7.80606 3.50858-11.57346 5.48596zM298.62096 138.01323l.66776 2.0126c3.97343-1.31948 8.05712-2.494 12.13718-3.49l-.50315-2.06022c-4.13545 1.00997-8.27452 2.20055-12.30179 3.53762zM234.38872 178.79055l1.53947 1.45768c2.88069-3.04115 5.928-6.00258 9.0572-8.801l-1.41316-1.58088c-3.17311 2.83776-6.26297 5.84009-9.18351 8.9242zM253.46076 161.73059l1.27858 1.69166c3.346-2.5292 6.83858-4.95074 10.38133-7.19731l-1.13571-1.79052c-3.59141 2.27763-7.13209 4.73229-10.5242 7.29617zM349.0487 130.97587c-6.11672-1.9574-13.75345-5.42476-18.56345-9.24711l3.676 8.87564c-3.5806.3298-7.16787.7742-10.69185 1.33947l.33543 2.09334c3.44291-.5518 6.94677-.98721 10.44461-1.3117l-2.845 9.14759c4.44198-4.24448 11.73116-8.393 17.64426-10.89723z" fill="#ccc"/><path d="M436.86993 163.83999a32.86412 32.86412 0 1132.86412-32.86412 32.9016 32.9016 0 01-32.86412 32.86412zm0-63.608a30.74385 30.74385 0 1030.74385 30.74385 30.77858 30.77858 0 00-30.74385-30.74382z" fill="#6c63ff"/><path fill="#6c63ff" d="M433.6897 115.07388h6.3608v31.80398h-6.3608z"/><path fill="#6c63ff" d="M452.77209 127.79547v6.3608h-31.80398v-6.3608z"/></svg>