<svg viewBox="0 0 1428 174" xmlns="http://www.w3.org/2000/svg"><g fill="#FFF" fill-rule="nonzero"><path d="M-2 44c90.7283404.92752791 147.912752 27.187927 291.910178 59.9119003C385.908462 125.7278826 541.605069 133.334785 757 126.7326078 467.336065 200.254352 214.336065 197.6679-2 118.9732496" opacity=".1"/><path d="M98 148.708498c177.413333-32.4739031 326.147877-52.1838323 446.203633-59.1297879C664.259389 82.6327546 808.524845 85.7979068 977 99.0741668c-47.930035 1.0483442-168.696734 19.7713473-362.300097 56.1690092C421.096539 191.640838 248.863238 189.462612 98 148.708498z" opacity=".1"/><path d="M1044 95.6521276c84.83045-22.3233156 233.08318-34.0442446 393-11.486447V164c-167.82789-42.0564688-298.82789-64.8390929-393-68.3478724z" opacity=".2"/><g><path d="M-3.543 110.035c56.629 19.163 97.751 31.774 123.365 37.83 57.632 13.63 110.473 18.425 148.211 21.594 39.322 3.3 124.602 2.342 188.992-1.796 25.735-1.653 57.702-5.291 95.901-10.911 38.821-6.156 65.446-10.744 79.873-13.761 27.114-5.667 75.702-17.488 90.806-20.863 52.865-11.811 91.234-23.596 128.719-30.224 66.365-11.735 99.352-13.382 154.861-15.472 49.52 1.045 86.205 2.697 110.051 4.955 40.467 3.832 87.385 12.434 114.164 16.917 50.455 8.444 118.951 25.128 205.486 50.05l.305 31.998-1440.07-.321-.664-69.996z"/></g></g></svg>