<svg class="wave-top" viewBox="0 0 1439 147" xmlns="http://www.w3.org/2000/svg"><g fill-rule="nonzero" fill="none"><path d="M1439 70c-56.445-19.7-97.445-32.7-123-39-57.5-14.176-110.293-19.474-148-23-39.289-3.674-124.574-3.525-189 0-25.75 1.409-57.75 4.742-96 10-38.878 5.787-65.545 10.121-80 13-27.167 5.41-75.864 16.77-91 20-52.977 11.309-91.456 22.729-129 29-66.475 11.104-99.475 12.438-155 14-49.51-1.516-86.177-3.516-110-6-40.429-4.217-87.263-13.264-114-18C153.629 61.076 85.296 43.743-1 18v-32h1440v84z" fill="#f8fafc"/><g fill="#FFF"><path d="M1439 138c-90.7283404-.92752791-147.912752-27.187927-291.910178-59.9119003C1051.091538 56.2721174 895.394931 48.665215 680 55.2673922 969.663935-18.254352 1222.663935-15.6679 1439 63.0267504" opacity=".1"/><path d="M1339 33.291502c-177.413333 32.4739031-326.147877 52.1838323-446.203633 59.1297879C772.740611 99.3672454 628.475155 96.2020932 460 82.9258332c47.930035-1.0483442 168.696734-19.7713473 362.300097-56.1690092C1015.903461-9.640838 1188.136762-7.462612 1339 33.291502z" opacity=".1"/><path d="M393 86.3478724C308.16955 108.671188 159.91682 120.392117 0 97.8343194V18c167.82789 42.0564688 298.82789 64.8390929 393 68.3478724z" opacity=".2"/></g></g></svg>